<svg id="Layer_1" data-name="Layer 1" xmlns="http://www.w3.org/2000/svg" viewBox="0 0 210.84 38.11" data-hover-id="0" style="animation: 2s ease-in-out 0s 1 normal none running animation-1-0;">
    <defs data-hover-id="1">
        <style data-hover-id="2">.cls-1{fill:none;stroke:black;}</style>
    <style class="animationCss">* {
            transform-origin: center;
            transform-box: fill-box;
        }
        
        @keyframes animation-1-0 {
                from {
                  transform: translate(-50%, 0) rotate(0) scale(0);
                  opacity: 1;
                }
              
                to {
                    transform: translate(0, 0) rotate(0) scale(1);
                    opacity: 1;
                }
              }</style><style class="animationCss">* {
            transform-origin: center;
            transform-box: fill-box;
        }
        
        @keyframes animation-1-4 {
                from {
                  transform: translate(0, 0) rotate(0) scale(1);
                  opacity: 0;
                }
              
                to {
                    transform: translate(0, 0) rotate(0) scale(1);
                    opacity: 1;
                }
              }</style><style class="animationCss">* {
            transform-origin: center;
            transform-box: fill-box;
        }
        
        @keyframes animation-1-8 {
                from {
                  transform: translate(0, 0) rotate(0) scale(1);
                  opacity: 0;
                }
              
                to {
                    transform: translate(0, 0) rotate(0) scale(1);
                    opacity: 1;
                }
              }</style></defs>
    <title data-hover-id="3">svg_tool</title>
    <g classname="word" data-hover-id="4" style="animation: 2s ease-in 0s 1 normal none running animation-1-4;">
        <path class="cls-1" d="M127.92,142.37q.8.28,1.63.66t1.72.71a15.23,15.23,0,0,0,1.86.57,8.83,8.83,0,0,0,2.07.23,11.48,11.48,0,0,0,2.6-.3,12.55,12.55,0,0,0,2.57-.9,14.36,14.36,0,0,0,2.4-1.45,12.93,12.93,0,0,0,2.11-2q1.05-1.2,1.76-2.17a19.48,19.48,0,0,0,1.14-1.73,7.91,7.91,0,0,0,.62-1.31,3,3,0,0,0,.19-.95,1.46,1.46,0,0,0-.4-1,3,3,0,0,0-1.07-.71,6.37,6.37,0,0,0-1.51-.41,11.63,11.63,0,0,0-1.76-.13l-1.27,0-1.48.07-1.45.06-1.22,0a7.76,7.76,0,0,1-1.61-.18,6.76,6.76,0,0,1-1.63-.57,5.68,5.68,0,0,1-1.48-1.08,5.5,5.5,0,0,1-1.12-1.69,5.59,5.59,0,0,1-.26-.77,3.77,3.77,0,0,1-.12-1,6.64,6.64,0,0,1,.08-1.07q.08-.5.2-1A9.05,9.05,0,0,1,133.6,122a16.09,16.09,0,0,1,1.83-2.36,28.66,28.66,0,0,1,2.32-2.23q1.25-1.08,2.58-2t2.6-1.71q1.28-.76,2.38-1.3a13.72,13.72,0,0,1,3.15-1.09,15.3,15.3,0,0,1,3.18-.34,6.33,6.33,0,0,1,1.78.25,4.78,4.78,0,0,1,1.49.71,3.46,3.46,0,0,1,1,1.16,3.27,3.27,0,0,1,.38,1.58,2.77,2.77,0,0,1-.12.87,1.73,1.73,0,0,1-.3.57,1.1,1.1,0,0,1-.41.32,1.17,1.17,0,0,1-.46.09,4.5,4.5,0,0,1-1.16-.14q-.53-.14-1-.32l-1-.33a3.63,3.63,0,0,0-1.08-.15,9.76,9.76,0,0,0-3.53.69,20.31,20.31,0,0,0-3.49,1.76,25.85,25.85,0,0,0-3.21,2.38q-1.51,1.31-2.71,2.55a4.66,4.66,0,0,0-.93,1.31,3.05,3.05,0,0,0-.29,1.24,1.54,1.54,0,0,0,.75,1.36,3.26,3.26,0,0,0,1.83.49l1.43,0,1.63-.06,1.62-.07q.79,0,1.39,0a9.45,9.45,0,0,1,2.79.41,7.37,7.37,0,0,1,2.37,1.21,6,6,0,0,1,1.65,2,5.74,5.74,0,0,1,.62,2.71,6.73,6.73,0,0,1-.28,1.9,11.34,11.34,0,0,1-.77,1.93,18.63,18.63,0,0,1-1.12,1.92q-.63.95-1.34,1.86a25.64,25.64,0,0,1-2.82,3.09,20.82,20.82,0,0,1-3.32,2.53,17.21,17.21,0,0,1-3.71,1.71,13,13,0,0,1-4,.63,10.6,10.6,0,0,1-1.83-.16,12,12,0,0,1-1.85-.48,9.35,9.35,0,0,1-1.72-.8,7.18,7.18,0,0,1-1.42-1.09,5.06,5.06,0,0,1-1-1.35,3.59,3.59,0,0,1-.36-1.61,2.54,2.54,0,0,1,.13-.81A.6.6,0,0,1,127.92,142.37Z" transform="translate(-127.14 -110.94)" data-hover-id="5"></path>
        <path class="cls-1" d="M161.78,121.25a7.51,7.51,0,0,0-.06-1q-.06-.43-.13-.82t-.13-.76a5.33,5.33,0,0,1-.06-.82,6,6,0,0,1,.11-1.14,3.2,3.2,0,0,1,.35-1,1.86,1.86,0,0,1,1.75-1,2.55,2.55,0,0,1,1.5.4,2.67,2.67,0,0,1,.87,1,4.55,4.55,0,0,1,.41,1.41,11.7,11.7,0,0,1,.11,1.56q0,.68-.13,2.11t-.27,3.56q-.14,2.13-.27,4.95T165.7,136q0,1.08.09,2.4a15.89,15.89,0,0,0,.38,2.52,7.82,7.82,0,0,0,.8,2.1,2.35,2.35,0,0,0,1.38,1.16,35.4,35.4,0,0,0,3.95-4.36,53.73,53.73,0,0,0,3.25-4.73q1.45-2.39,2.63-4.69t2.11-4.2l1.61-3.36q.71-1.51,1.29-2.8t1-2.4q.43-1.11.79-2.14.09-.23.3-.68a2,2,0,0,1,.68-.77,3.34,3.34,0,0,1,1.95-.45,1.67,1.67,0,0,1,1.2.36,1.35,1.35,0,0,1,.38,1q0,.23,0,.55a1.51,1.51,0,0,1-.13.57q-.54,1.43-1.43,3.27t-1.85,3.9q-.91,1.95-1.9,4t-2,4q-1,2-2.07,3.75T178,138.25q-.89,1.34-2.44,3.43t-4.1,5q-.4.45-.8.86a6.8,6.8,0,0,1-.84.74,4.11,4.11,0,0,1-1,.53,3.1,3.1,0,0,1-1.12.2,3.27,3.27,0,0,1-1.64-.4,5.14,5.14,0,0,1-1.25-1,6.7,6.7,0,0,1-.95-1.32q-.4-.73-.73-1.41a11,11,0,0,1-.71-1.85A19.13,19.13,0,0,1,162,141q-.19-1.09-.28-2.23t-.09-2.24,0-.83q0-.69,0-1.78t0-2.47q0-1.38,0-2.89t0-3.09q0-1.58,0-3Z" transform="translate(-127.14 -110.94)" data-hover-id="6"></path>
        <path class="cls-1" d="M214.45,131.17l-1,.3-1.64.55-1.93.68-1.93.68-1.59.55-.91.3a1.65,1.65,0,0,0-.42.14l-.53.23-.52.22a1.07,1.07,0,0,1-.39.11,1.89,1.89,0,0,1-.88-.2,2.16,2.16,0,0,1-1.09-1.3,3,3,0,0,1-.14-.91A2.11,2.11,0,0,1,202,131a3.57,3.57,0,0,1,1.28-.86,6.07,6.07,0,0,1,1.54-.39l1.31-.16a1.15,1.15,0,0,0,.28-.07l.47-.16.52-.16a1.68,1.68,0,0,1,.42-.07l1.31-.56q.89-.37,1.95-.76t2.1-.68a6.79,6.79,0,0,1,1.79-.29,3.92,3.92,0,0,1,1.5.27,3.3,3.3,0,0,1,1.13.75,3.25,3.25,0,0,1,.71,1.13,3.94,3.94,0,0,1,.25,1.42,4.89,4.89,0,0,1,0,.67q0,.34-.16.83a17.42,17.42,0,0,1-2.14,4.89,21.61,21.61,0,0,1-3.39,4.1,24.75,24.75,0,0,1-4.29,3.25,28.5,28.5,0,0,1-4.83,2.32l0,0q-.4.16-1,.34t-1.2.33q-.62.15-1.22.25a6.85,6.85,0,0,1-1,.09q-.91,0-1.55-.06t-1.07-.14a4,4,0,0,1-.73-.2l-.53-.23a12.55,12.55,0,0,1-2.45-1.46,9.1,9.1,0,0,1-3.15-4.48,9.63,9.63,0,0,1-.45-3,12.66,12.66,0,0,1,.56-3.62,22.41,22.41,0,0,1,1.55-3.81,31.4,31.4,0,0,1,2.31-3.8,39.4,39.4,0,0,1,2.87-3.6,38.87,38.87,0,0,1,3.22-3.2,33.18,33.18,0,0,1,3.34-2.6q1-.68,2.17-1.38a24,24,0,0,1,2.38-1.27,17.55,17.55,0,0,1,2.47-.93,8.78,8.78,0,0,1,2.45-.36,6.57,6.57,0,0,1,1.9.28,6.2,6.2,0,0,1,1.69.79,4.25,4.25,0,0,1,1.22,1.23,2.92,2.92,0,0,1,.47,1.62,3.59,3.59,0,0,1-.12.87q0,.19-.19.66a2.1,2.1,0,0,1-.35.73l0,0a.45.45,0,0,1-.32.35,2.21,2.21,0,0,1-.46,0,2,2,0,0,1-1.2-.35,7.87,7.87,0,0,1-.91-.76q-.42-.41-.83-.76a1.45,1.45,0,0,0-1-.35H212a15.46,15.46,0,0,0-3.89,1.49,29.91,29.91,0,0,0-4.11,2.65,35.47,35.47,0,0,0-3.93,3.48,31,31,0,0,0-3.3,4,21.41,21.41,0,0,0-2.29,4.18,10.86,10.86,0,0,0-.86,4.07,5,5,0,0,0,.73,2.73,9.45,9.45,0,0,0,2.11,2.24h0a8.57,8.57,0,0,0,1.58.8,4.66,4.66,0,0,0,1.68.33,5.91,5.91,0,0,0,1.84-.33,15.31,15.31,0,0,0,2-.82q1-.49,1.95-1.08l1.72-1.08a16.78,16.78,0,0,0,4.2-3.84,24.19,24.19,0,0,0,2.81-4.62l.09-.23a.86.86,0,0,0,.07-.2A1.81,1.81,0,0,1,214.45,131.17Z" transform="translate(-127.14 -110.94)" data-hover-id="7"></path>
    </g>
    <g classname="word" data-hover-id="8" style="animation: 2s ease-in 100ms 1 normal none running animation-1-8;">
        <path class="cls-1" d="M254.95,144q.89-3.89,2-7.85t2.17-7.85q.45-1.62.79-2.94t.57-2.4q.23-1.08.35-2a12.38,12.38,0,0,0,.12-1.63v-.32q0-.18,0-.43a4.72,4.72,0,0,0-1,.26q-.81.26-1.9.68t-2.3.95q-1.21.53-2.24,1.07l-1.37.7a10,10,0,0,1-.95.43,4.06,4.06,0,0,1-.73.21,3.86,3.86,0,0,1-.68.06,1.66,1.66,0,0,1-1.25-.56,2,2,0,0,1-.53-1.45,3.45,3.45,0,0,1,.11-.9,2.09,2.09,0,0,1,.33-.69,2.63,2.63,0,0,1,.6-.57,7.6,7.6,0,0,1,.91-.55,51.76,51.76,0,0,1,12-4.54,52.59,52.59,0,0,1,12.19-1.44l1.17,0q.68,0,1.39.08t1.39.16a11,11,0,0,1,1.2.25,1.87,1.87,0,0,1,.94.68,1.77,1.77,0,0,1,.4,1.1,5,5,0,0,1-.08.91,2.13,2.13,0,0,1-.29.77,1.55,1.55,0,0,1-1.38.73l-1.93-.23a17.11,17.11,0,0,0-2.19-.14q-2.2,0-4.39.11a26.24,26.24,0,0,0-4.49.62.29.29,0,0,0-.15.25q0,.2-.06.5-.07,1.27-.21,2.23a18.6,18.6,0,0,1-.39,1.92q-.25,1-.6,2.07t-.82,2.67q-.47,1.56-1.09,3.73t-1.37,5.24L260,140.5q-.4,1.57-.62,2.82t-.39,2.47a1.32,1.32,0,0,1-.71.75,2.92,2.92,0,0,1-1.46.35,1.55,1.55,0,0,1-.89-.27,2.22,2.22,0,0,1-.66-.69,2.71,2.71,0,0,1-.35-.93A2.15,2.15,0,0,1,254.95,144Z" transform="translate(-127.14 -110.94)" data-hover-id="9"></path>
        <path class="cls-1" d="M275.45,138.81a17.08,17.08,0,0,1,1.09-3,19.08,19.08,0,0,1,1.93-3.25,22.93,22.93,0,0,1,2.87-3.21,24.34,24.34,0,0,1,3.88-2.93,5.89,5.89,0,0,1,1.08-.46,5.74,5.74,0,0,1,1.5-.29,3.2,3.2,0,0,1,2.46-1,5,5,0,0,1,3.08.93,7.1,7.1,0,0,1,2.07,2.52q.26.52.48,1a7.15,7.15,0,0,1,.38,1,9.47,9.47,0,0,1,.34,2.61,12.9,12.9,0,0,1-.59,3.77,17.31,17.31,0,0,1-1.66,3.75,20.94,20.94,0,0,1-2.61,3.5,21.64,21.64,0,0,1-3.41,3,10.16,10.16,0,0,1-2.8,1.42,11,11,0,0,1-3.43.5,9.18,9.18,0,0,1-3.13-.48,5.84,5.84,0,0,1-2.2-1.37,5.63,5.63,0,0,1-1.31-2.13A8.35,8.35,0,0,1,275,142,13.08,13.08,0,0,1,275.45,138.81Zm3.89.3a7.79,7.79,0,0,0-.2,1,7.65,7.65,0,0,0-.06.93,5,5,0,0,0,.2,1.44,2.87,2.87,0,0,0,.64,1.15,3,3,0,0,0,1.11.75,4.36,4.36,0,0,0,1.63.27,6.43,6.43,0,0,0,3.32-.9,11.12,11.12,0,0,0,2.73-2.26,14.57,14.57,0,0,0,2-2.92,13.37,13.37,0,0,0,1.14-2.87q.21-.82.36-1.55a6.55,6.55,0,0,0,.15-1.34,2.89,2.89,0,0,0-.22-1.14q-.22-.53-.57-1.18-.21-.4-.42-.83t-.37-.86a3.7,3.7,0,0,1-.4.57,1.88,1.88,0,0,1-.63.45,5.72,5.72,0,0,1-1.15.36,16.3,16.3,0,0,1-1.9.28,6.47,6.47,0,0,0-1.57.8,12,12,0,0,0-1.56,1.27,17.46,17.46,0,0,0-1.45,1.57,16.77,16.77,0,0,0-1.24,1.72,18.41,18.41,0,0,0-1,1.72A7.48,7.48,0,0,0,279.34,139.11Z" transform="translate(-127.14 -110.94)" data-hover-id="10"></path>
        <path class="cls-1" d="M300.84,138.81a17.08,17.08,0,0,1,1.09-3,19.08,19.08,0,0,1,1.93-3.25,22.93,22.93,0,0,1,2.87-3.21,24.34,24.34,0,0,1,3.88-2.93,5.89,5.89,0,0,1,1.08-.46,5.74,5.74,0,0,1,1.5-.29,3.2,3.2,0,0,1,2.46-1,5,5,0,0,1,3.08.93,7.1,7.1,0,0,1,2.07,2.52q.26.52.48,1a7.15,7.15,0,0,1,.38,1,9.47,9.47,0,0,1,.34,2.61,12.9,12.9,0,0,1-.59,3.77,17.31,17.31,0,0,1-1.66,3.75,20.94,20.94,0,0,1-2.61,3.5,21.64,21.64,0,0,1-3.41,3,10.16,10.16,0,0,1-2.8,1.42,11,11,0,0,1-3.43.5,9.18,9.18,0,0,1-3.13-.48,5.84,5.84,0,0,1-2.2-1.37,5.63,5.63,0,0,1-1.31-2.13,8.35,8.35,0,0,1-.43-2.77A13.08,13.08,0,0,1,300.84,138.81Zm3.89.3a7.79,7.79,0,0,0-.2,1,7.65,7.65,0,0,0-.06.93,5,5,0,0,0,.2,1.44,2.87,2.87,0,0,0,.64,1.15,3,3,0,0,0,1.11.75,4.36,4.36,0,0,0,1.63.27,6.43,6.43,0,0,0,3.32-.9,11.12,11.12,0,0,0,2.73-2.26,14.57,14.57,0,0,0,2-2.92,13.37,13.37,0,0,0,1.14-2.87q.21-.82.36-1.55a6.55,6.55,0,0,0,.15-1.34,2.89,2.89,0,0,0-.22-1.14q-.22-.53-.57-1.18-.21-.4-.42-.83t-.37-.86a3.7,3.7,0,0,1-.4.57,1.88,1.88,0,0,1-.63.45,5.72,5.72,0,0,1-1.15.36,16.3,16.3,0,0,1-1.9.28,6.47,6.47,0,0,0-1.57.8,12,12,0,0,0-1.56,1.27,17.46,17.46,0,0,0-1.45,1.57,16.77,16.77,0,0,0-1.24,1.72,18.41,18.41,0,0,0-1,1.72A7.48,7.48,0,0,0,304.73,139.11Z" transform="translate(-127.14 -110.94)" data-hover-id="11"></path>
        <path class="cls-1" d="M333.13,115.65a9.43,9.43,0,0,1,.38-1.73,4,4,0,0,1,.69-1.32,1.38,1.38,0,0,1,1.11-.53,2.85,2.85,0,0,1,.83.14,3.92,3.92,0,0,1,.87.39,2.56,2.56,0,0,1,.69.6,1.21,1.21,0,0,1,.28.77,1.6,1.6,0,0,1-.07.43q-.07.25-.12.48l-5.86,23.48q-.35,1.41-.59,2.68t-.35,2.1v.56a13.78,13.78,0,0,1-.09,1.54,6.79,6.79,0,0,1-.35,1.55,3.36,3.36,0,0,1-.71,1.2,1.56,1.56,0,0,1-1.18.48,2.17,2.17,0,0,1-1.1-.27,2.44,2.44,0,0,1-.77-.69,3,3,0,0,1-.45-.9,3.22,3.22,0,0,1-.14-.9,7.52,7.52,0,0,1,.07-.93q.07-.55.18-1.15t.22-1.2q.12-.6.23-1l6-24Q333,116.59,333.13,115.65Z" transform="translate(-127.14 -110.94)" data-hover-id="12"></path>
    </g>
</svg>