<svg id="Layer_1" data-name="Layer 1" xmlns="http://www.w3.org/2000/svg" viewBox="0 0 211.84 39.16"><defs><style>.cls-1{fill:none;stroke:#000;}</style></defs><title>svg_tool_2</title><path class="cls-1" d="M.87,31.46q.8.28,1.63.66t1.72.71a15.23,15.23,0,0,0,1.86.57,8.83,8.83,0,0,0,2.07.23,11.48,11.48,0,0,0,2.6-.3,12.55,12.55,0,0,0,2.57-.9A14.36,14.36,0,0,0,15.72,31a12.93,12.93,0,0,0,2.11-2q1-1.2,1.76-2.17a19.48,19.48,0,0,0,1.14-1.73,7.91,7.91,0,0,0,.62-1.31,3,3,0,0,0,.19-.95,1.46,1.46,0,0,0-.4-1,3,3,0,0,0-1.07-.71,6.37,6.37,0,0,0-1.51-.41,11.63,11.63,0,0,0-1.76-.13H15.53l-1.48.07-1.45.06H11.38a7.76,7.76,0,0,1-1.61-.18,6.76,6.76,0,0,1-1.63-.57,5.68,5.68,0,0,1-1.48-1.08,5.5,5.5,0,0,1-1.12-1.69,5.59,5.59,0,0,1-.26-.77,3.77,3.77,0,0,1-.12-1,6.64,6.64,0,0,1,.08-1.07q.08-.5.2-1a9.05,9.05,0,0,1,1.11-2.25A16.09,16.09,0,0,1,8.38,8.73,28.66,28.66,0,0,1,10.7,6.5a30.39,30.39,0,0,1,2.58-2q1.33-.92,2.6-1.71t2.38-1.3A13.72,13.72,0,0,1,21.41.4,15.3,15.3,0,0,1,24.59.06a6.33,6.33,0,0,1,1.78.25A4.78,4.78,0,0,1,27.86,1a3.46,3.46,0,0,1,1,1.16,3.27,3.27,0,0,1,.38,1.58,2.77,2.77,0,0,1-.12.87,1.73,1.73,0,0,1-.3.57,1.1,1.1,0,0,1-.41.32,1.17,1.17,0,0,1-.46.09,4.5,4.5,0,0,1-1.16-.14,9.78,9.78,0,0,1-1-.32l-1-.33a3.63,3.63,0,0,0-1.08-.15,9.76,9.76,0,0,0-3.53.69,20.31,20.31,0,0,0-3.49,1.76A25.85,25.85,0,0,0,13.48,9.5Q12,10.81,10.77,12a4.66,4.66,0,0,0-.93,1.31,3.05,3.05,0,0,0-.29,1.24A1.54,1.54,0,0,0,10.3,16a3.26,3.26,0,0,0,1.83.49h1.43l1.63-.06,1.62-.07H18.2a9.45,9.45,0,0,1,2.79.41,7.37,7.37,0,0,1,2.37,1.21,6,6,0,0,1,1.65,2,5.74,5.74,0,0,1,.62,2.71,6.73,6.73,0,0,1-.28,1.9,11.34,11.34,0,0,1-.77,1.93,18.63,18.63,0,0,1-1.12,1.92q-.63.95-1.34,1.86a25.64,25.64,0,0,1-2.82,3.09A20.82,20.82,0,0,1,16,35.88a17.21,17.21,0,0,1-3.71,1.71,13,13,0,0,1-4,.63,10.6,10.6,0,0,1-1.83-.16,12,12,0,0,1-1.85-.48,9.35,9.35,0,0,1-1.72-.8,7.18,7.18,0,0,1-1.42-1.09,5.06,5.06,0,0,1-1-1.35,3.59,3.59,0,0,1-.36-1.61,2.54,2.54,0,0,1,.13-.81A.6.6,0,0,1,.87,31.46Z" transform="translate(0.41 0.45)"/><path class="cls-1" d="M34.73,10.34a7.51,7.51,0,0,0-.06-1q-.06-.43-.13-.82t-.13-.76a5.33,5.33,0,0,1-.06-.82,6,6,0,0,1,.11-1.14,3.2,3.2,0,0,1,.35-1,1.86,1.86,0,0,1,1.75-1,2.55,2.55,0,0,1,1.5.4,2.67,2.67,0,0,1,.87,1,4.55,4.55,0,0,1,.41,1.41,11.7,11.7,0,0,1,.11,1.56q0,.68-.13,2.11T39,13.84q-.14,2.13-.27,4.95t-.13,6.3q0,1.08.09,2.4A15.89,15.89,0,0,0,39.12,30a7.82,7.82,0,0,0,.8,2.1,2.35,2.35,0,0,0,1.38,1.16,35.4,35.4,0,0,0,3.95-4.36,53.73,53.73,0,0,0,3.25-4.73q1.45-2.39,2.63-4.69t2.11-4.2l1.61-3.36q.71-1.51,1.29-2.8t1-2.4q.43-1.11.79-2.14.09-.23.3-.68a2,2,0,0,1,.68-.77,3.34,3.34,0,0,1,1.95-.45,1.67,1.67,0,0,1,1.2.36,1.35,1.35,0,0,1,.38,1V4.6a1.51,1.51,0,0,1-.13.57q-.54,1.43-1.43,3.27T59,12.34q-.91,1.95-1.9,4t-2,4q-1,2-2.07,3.75t-2.11,3.25q-.89,1.34-2.44,3.43t-4.1,5q-.4.45-.8.86a6.8,6.8,0,0,1-.84.74,4.11,4.11,0,0,1-1,.53,3.1,3.1,0,0,1-1.12.2A3.27,3.27,0,0,1,39,37.7a5.14,5.14,0,0,1-1.25-1,6.7,6.7,0,0,1-.95-1.32q-.4-.73-.73-1.41a11,11,0,0,1-.71-1.85,19.13,19.13,0,0,1-.42-2q-.19-1.09-.28-2.23t-.09-2.24V11.56Z" transform="translate(0.41 0.45)"/><path class="cls-1" d="M87.4,20.26l-1,.3-1.64.55-1.93.68-1.93.68L79.31,23l-.91.3a1.65,1.65,0,0,0-.42.14l-.53.23-.52.22a1.07,1.07,0,0,1-.39.11,1.89,1.89,0,0,1-.88-.2,2.16,2.16,0,0,1-1.09-1.3,3,3,0,0,1-.14-.91,2.11,2.11,0,0,1,.52-1.52,3.57,3.57,0,0,1,1.28-.86,6.07,6.07,0,0,1,1.54-.39l1.31-.16a1.15,1.15,0,0,0,.28-.07l.47-.16.52-.16a1.68,1.68,0,0,1,.42-.07l1.31-.56q.89-.37,1.95-.76t2.1-.68a6.79,6.79,0,0,1,1.79-.29,3.92,3.92,0,0,1,1.5.27,3.3,3.3,0,0,1,1.13.75,3.25,3.25,0,0,1,.71,1.13,3.94,3.94,0,0,1,.25,1.42,4.89,4.89,0,0,1,0,.67,2.76,2.76,0,0,1-.16.83,17.42,17.42,0,0,1-2.14,4.89A21.61,21.61,0,0,1,85.82,30a24.75,24.75,0,0,1-4.29,3.25,28.5,28.5,0,0,1-4.83,2.32h0q-.4.16-1,.34l-1.2.33q-.62.15-1.22.25a6.85,6.85,0,0,1-1,.09q-.91,0-1.55-.06t-1.07-.14a4,4,0,0,1-.73-.2l-.53-.23a12.55,12.55,0,0,1-2.45-1.46A9.1,9.1,0,0,1,62.8,30a9.63,9.63,0,0,1-.45-3,12.66,12.66,0,0,1,.56-3.62,22.41,22.41,0,0,1,1.55-3.81,31.4,31.4,0,0,1,2.31-3.8,39.4,39.4,0,0,1,2.87-3.6A38.87,38.87,0,0,1,72.86,9a33.18,33.18,0,0,1,3.34-2.6q1-.68,2.17-1.38a24,24,0,0,1,2.38-1.27,17.55,17.55,0,0,1,2.47-.93,8.78,8.78,0,0,1,2.45-.36,6.57,6.57,0,0,1,1.9.28,6.2,6.2,0,0,1,1.69.79,4.25,4.25,0,0,1,1.22,1.23,2.92,2.92,0,0,1,.47,1.62,3.59,3.59,0,0,1-.12.87,2.14,2.14,0,0,1-.19.66,2.1,2.1,0,0,1-.35.73h0A.45.45,0,0,1,90,9a2.21,2.21,0,0,1-.46,0,2,2,0,0,1-1.2-.35,7.87,7.87,0,0,1-.91-.76q-.42-.41-.83-.76a1.45,1.45,0,0,0-1-.35h-.62a15.46,15.46,0,0,0-3.89,1.49,29.91,29.91,0,0,0-4.11,2.65A35.47,35.47,0,0,0,73,14.36a31,31,0,0,0-3.3,4,21.41,21.41,0,0,0-2.29,4.18,10.86,10.86,0,0,0-.86,4.07,5,5,0,0,0,.73,2.73,9.45,9.45,0,0,0,2.11,2.24h0a8.57,8.57,0,0,0,1.58.8,4.66,4.66,0,0,0,1.68.33,5.91,5.91,0,0,0,1.84-.33,15.31,15.31,0,0,0,2-.82,22.25,22.25,0,0,0,1.95-1.08l1.72-1.08a16.78,16.78,0,0,0,4.2-3.84,24.19,24.19,0,0,0,2.81-4.62l.09-.23a.86.86,0,0,0,.07-.2A1.81,1.81,0,0,1,87.4,20.26Z" transform="translate(0.41 0.45)"/><path class="cls-1" d="M127.9,33.09q.89-3.89,2-7.85t2.17-7.85q.45-1.62.79-2.94t.57-2.4q.23-1.08.35-2a12.38,12.38,0,0,0,.12-1.63V7.66a4.72,4.72,0,0,0-1,.26q-.81.26-1.9.68t-2.3.95q-1.21.53-2.24,1.07l-1.37.7a10,10,0,0,1-.95.43,4.06,4.06,0,0,1-.73.21,3.86,3.86,0,0,1-.68.06,1.66,1.66,0,0,1-1.25-.56A2,2,0,0,1,121,10a3.45,3.45,0,0,1,.11-.9,2.09,2.09,0,0,1,.33-.69,2.63,2.63,0,0,1,.6-.57,7.6,7.6,0,0,1,.91-.55,51.76,51.76,0,0,1,12-4.54,52.59,52.59,0,0,1,12.19-1.44h1.17a12.41,12.41,0,0,1,1.39.08l1.39.16a11,11,0,0,1,1.2.25,1.87,1.87,0,0,1,.94.68,1.77,1.77,0,0,1,.4,1.1,5,5,0,0,1-.08.91,2.13,2.13,0,0,1-.29.77,1.55,1.55,0,0,1-1.38.73l-1.93-.23a17.11,17.11,0,0,0-2.19-.14q-2.2,0-4.39.11a26.24,26.24,0,0,0-4.49.62.29.29,0,0,0-.15.25,2.64,2.64,0,0,1-.06.5q-.07,1.27-.21,2.23a18.6,18.6,0,0,1-.39,1.92q-.25,1-.6,2.07T136.6,16q-.47,1.56-1.09,3.73T134.14,25l-1.19,4.61q-.4,1.57-.62,2.82t-.39,2.47a1.32,1.32,0,0,1-.71.75,2.92,2.92,0,0,1-1.46.35,1.55,1.55,0,0,1-.89-.27,2.22,2.22,0,0,1-.66-.69,2.71,2.71,0,0,1-.35-.93A2.15,2.15,0,0,1,127.9,33.09Z" transform="translate(0.41 0.45)"/><path class="cls-1" d="M148.4,27.9a17.08,17.08,0,0,1,1.09-3,19.08,19.08,0,0,1,1.93-3.25,22.93,22.93,0,0,1,2.87-3.21,24.34,24.34,0,0,1,3.88-2.93,5.89,5.89,0,0,1,1.08-.46,5.74,5.74,0,0,1,1.5-.29,3.2,3.2,0,0,1,2.46-1,5,5,0,0,1,3.08.93,7.1,7.1,0,0,1,2.07,2.52q.26.52.48,1a7.15,7.15,0,0,1,.38,1,9.47,9.47,0,0,1,.34,2.61,12.9,12.9,0,0,1-.59,3.77,17.31,17.31,0,0,1-1.66,3.75,20.94,20.94,0,0,1-2.61,3.5,21.64,21.64,0,0,1-3.41,3,10.16,10.16,0,0,1-2.8,1.42,11,11,0,0,1-3.43.5,9.18,9.18,0,0,1-3.13-.48,5.84,5.84,0,0,1-2.2-1.37,5.63,5.63,0,0,1-1.31-2.13,8.35,8.35,0,0,1-.47-2.69A13.08,13.08,0,0,1,148.4,27.9Zm3.89.3a7.79,7.79,0,0,0-.2,1,7.65,7.65,0,0,0-.06.93,5,5,0,0,0,.2,1.44,2.87,2.87,0,0,0,.64,1.15,3,3,0,0,0,1.11.75,4.36,4.36,0,0,0,1.63.27,6.43,6.43,0,0,0,3.32-.9,11.12,11.12,0,0,0,2.73-2.26,14.57,14.57,0,0,0,2-2.92,13.37,13.37,0,0,0,1.14-2.87q.21-.82.36-1.55a6.55,6.55,0,0,0,.15-1.34,2.89,2.89,0,0,0-.22-1.14q-.22-.53-.57-1.18l-.42-.83q-.21-.43-.37-.86a3.7,3.7,0,0,1-.4.57,1.88,1.88,0,0,1-.63.45,5.72,5.72,0,0,1-1.15.36,16.3,16.3,0,0,1-1.9.28,6.47,6.47,0,0,0-1.57.8,12,12,0,0,0-1.56,1.27,17.46,17.46,0,0,0-1.45,1.57,16.77,16.77,0,0,0-1.24,1.72,18.41,18.41,0,0,0-1,1.72,7.48,7.48,0,0,0-.54,1.57Z" transform="translate(0.41 0.45)"/><path class="cls-1" d="M173.79,27.9a17.08,17.08,0,0,1,1.09-3,19.08,19.08,0,0,1,1.93-3.25,22.93,22.93,0,0,1,2.87-3.21,24.34,24.34,0,0,1,3.88-2.93,5.89,5.89,0,0,1,1.08-.46,5.74,5.74,0,0,1,1.5-.29,3.2,3.2,0,0,1,2.46-1,5,5,0,0,1,3.08.93,7.1,7.1,0,0,1,2.07,2.52q.26.52.48,1a7.15,7.15,0,0,1,.38,1,9.47,9.47,0,0,1,.34,2.61,12.9,12.9,0,0,1-.59,3.77,17.31,17.31,0,0,1-1.66,3.75,20.94,20.94,0,0,1-2.61,3.5,21.64,21.64,0,0,1-3.41,3,10.16,10.16,0,0,1-2.8,1.42,11,11,0,0,1-3.43.5,9.18,9.18,0,0,1-3.13-.48,5.84,5.84,0,0,1-2.2-1.37,5.63,5.63,0,0,1-1.31-2.13,8.35,8.35,0,0,1-.43-2.77A13.08,13.08,0,0,1,173.79,27.9Zm3.89.3a7.79,7.79,0,0,0-.2,1,7.65,7.65,0,0,0-.06.93,5,5,0,0,0,.2,1.44,2.87,2.87,0,0,0,.64,1.15,3,3,0,0,0,1.11.75,4.36,4.36,0,0,0,1.63.27,6.43,6.43,0,0,0,3.32-.9,11.12,11.12,0,0,0,2.73-2.26,14.57,14.57,0,0,0,2-2.92,13.37,13.37,0,0,0,1.14-2.87q.21-.82.36-1.55a6.55,6.55,0,0,0,.15-1.34,2.89,2.89,0,0,0-.22-1.14q-.22-.53-.57-1.18l-.42-.83q-.21-.43-.37-.86a3.7,3.7,0,0,1-.4.57,1.88,1.88,0,0,1-.63.45,5.72,5.72,0,0,1-1.15.36,16.3,16.3,0,0,1-1.9.28,6.47,6.47,0,0,0-1.57.8,12,12,0,0,0-1.56,1.27,17.46,17.46,0,0,0-1.45,1.57,16.77,16.77,0,0,0-1.24,1.72,18.41,18.41,0,0,0-1,1.72A7.48,7.48,0,0,0,177.68,28.2Z" transform="translate(0.41 0.45)"/><path class="cls-1" d="M206.08,4.74A9.43,9.43,0,0,1,206.46,3a4,4,0,0,1,.69-1.32,1.38,1.38,0,0,1,1.11-.53,2.85,2.85,0,0,1,.83.14,3.92,3.92,0,0,1,.87.39,2.56,2.56,0,0,1,.69.6,1.21,1.21,0,0,1,.28.77,1.6,1.6,0,0,1-.07.43q-.07.25-.12.48l-5.86,23.48q-.35,1.41-.59,2.68t-.35,2.1v.56a13.78,13.78,0,0,1-.09,1.54,6.79,6.79,0,0,1-.35,1.55,3.36,3.36,0,0,1-.71,1.2,1.56,1.56,0,0,1-1.18.48,2.17,2.17,0,0,1-1.1-.27,2.44,2.44,0,0,1-.77-.69,3,3,0,0,1-.45-.9,3.22,3.22,0,0,1-.14-.9,7.52,7.52,0,0,1,.07-.93q.07-.55.18-1.15l.22-1.2q.12-.6.23-1l6-24Q206,5.68,206.08,4.74Z" transform="translate(0.41 0.45)"/></svg>